<svg width="36" height="37" viewBox="0 0 36 37" fill="none" xmlns="http://www.w3.org/2000/svg">
    <circle cx="18" cy="18.43" r="18" fill="#000072"/>
    <mask id="path-2-inside-1_395_374" fill="white">
        <path fill-rule="evenodd" clip-rule="evenodd" d="M29.4266 19.2014C29.8646 18.8058 29.8666 18.119 29.4309 17.721L18.7352 7.9509C18.0944 7.36556 17.0632 7.81858 17.0607 8.68652L17.0491 12.7419H11.2437V23.9829H17.0168L17.0048 28.168C17.0023 29.0359 18.0309 29.4946 18.675 28.9128L29.4266 19.2014ZM10.2437 23.9829H9.24365V12.7419H10.2437V23.9829ZM8.24365 23.9829V12.7419H7.24365C6.69137 12.7419 6.24365 13.1896 6.24365 13.7419V22.9829C6.24365 23.5352 6.69137 23.9829 7.24365 23.9829H8.24365Z"/>
    </mask>
    <path d="M29.4309 17.721L30.7798 16.2443L30.7798 16.2443L29.4309 17.721ZM29.4266 19.2014L30.7672 20.6856V20.6856L29.4266 19.2014ZM18.7352 7.9509L20.0841 6.47423V6.47423L18.7352 7.9509ZM17.0607 8.68652L15.0607 8.68078V8.68078L17.0607 8.68652ZM17.0491 12.7419V14.7419H19.0433L19.0491 12.7477L17.0491 12.7419ZM11.2437 12.7419V10.7419H9.24365V12.7419H11.2437ZM11.2437 23.9829H9.24365V25.9829H11.2437V23.9829ZM17.0168 23.9829L19.0168 23.9886L19.0226 21.9829H17.0168V23.9829ZM17.0048 28.168L15.0048 28.1622V28.1622L17.0048 28.168ZM18.675 28.9128L20.0156 30.3969L20.0156 30.3969L18.675 28.9128ZM10.2437 23.9829V25.9829H12.2437V23.9829H10.2437ZM9.24365 23.9829H7.24365V25.9829H9.24365V23.9829ZM9.24365 12.7419V10.7419H7.24365V12.7419H9.24365ZM10.2437 12.7419H12.2437V10.7419H10.2437V12.7419ZM8.24365 12.7419H10.2437V10.7419H8.24365V12.7419ZM8.24365 23.9829V25.9829H10.2437V23.9829H8.24365ZM28.082 19.1977C27.6461 18.7994 27.6483 18.1126 28.0861 17.7172L30.7672 20.6856C32.0809 19.4991 32.0871 17.4386 30.7798 16.2443L28.082 19.1977ZM17.3863 9.42756L28.082 19.1977L30.7798 16.2443L20.0841 6.47423L17.3863 9.42756ZM19.0607 8.69226C19.0582 9.55968 18.0275 10.0132 17.3863 9.42756L20.0841 6.47423C18.1613 4.71788 15.0682 6.07748 15.0607 8.68078L19.0607 8.69226ZM19.0491 12.7477L19.0607 8.69226L15.0607 8.68078L15.0491 12.7362L19.0491 12.7477ZM11.2437 14.7419H17.0491V10.7419H11.2437V14.7419ZM9.24365 12.7419V23.9829H13.2437V12.7419H9.24365ZM17.0168 21.9829H11.2437V25.9829H17.0168V21.9829ZM19.0048 28.1737L19.0168 23.9886L15.0168 23.9772L15.0048 28.1622L19.0048 28.1737ZM17.3345 27.4286C17.9782 26.8471 19.0073 27.3052 19.0048 28.1737L15.0048 28.1622C14.9973 30.7666 18.0836 32.142 20.0156 30.3969L17.3345 27.4286ZM28.0861 17.7172L17.3345 27.4286L20.0156 30.3969L30.7672 20.6856L28.0861 17.7172ZM10.2437 21.9829H9.24365V25.9829H10.2437V21.9829ZM11.2437 23.9829V12.7419H7.24365V23.9829H11.2437ZM9.24365 14.7419H10.2437V10.7419H9.24365V14.7419ZM12.2437 23.9829V12.7419H8.24365V23.9829H12.2437ZM6.24365 12.7419V23.9829H10.2437V12.7419H6.24365ZM7.24365 14.7419H8.24365V10.7419H7.24365V14.7419ZM8.24365 13.7419C8.24365 14.2942 7.79594 14.7419 7.24365 14.7419V10.7419C5.5868 10.7419 4.24365 12.0851 4.24365 13.7419H8.24365ZM8.24365 22.9829V13.7419H4.24365V22.9829H8.24365ZM7.24365 21.9829C7.79594 21.9829 8.24365 22.4306 8.24365 22.9829H4.24365C4.24365 24.6398 5.5868 25.9829 7.24365 25.9829V21.9829ZM8.24365 21.9829H7.24365V25.9829H8.24365V21.9829Z" fill="white" mask="url(#path-2-inside-1_395_374)"/>
</svg>
