<svg width="36" height="37" viewBox="0 0 36 37" fill="none" xmlns="http://www.w3.org/2000/svg">
    <circle cx="18" cy="18.43" r="18" fill="#000072"/>
    <path d="M25.3259 12.1267C26 13.0896 26 14.4301 26 17.111C26 19.7919 26 21.1324 25.3259 22.0953C25.034 22.5122 24.659 22.8701 24.2223 23.1486C23.3409 23.7107 22.1577 23.7817 20 23.7907V23.792L18.8944 25.9024C18.5259 26.6059 17.4741 26.6059 17.1056 25.9024L16 23.792V23.7907C13.8423 23.7817 12.6591 23.7107 11.7777 23.1486C11.341 22.8701 10.966 22.5122 10.6741 22.0953C10 21.1324 10 19.7919 10 17.111C10 14.4301 10 13.0896 10.6741 12.1267C10.966 11.7098 11.341 11.3519 11.7777 11.0734C12.7866 10.43 14.1911 10.43 17 10.43H19C21.8089 10.43 23.2134 10.43 24.2223 11.0734C24.659 11.3519 25.034 11.7098 25.3259 12.1267Z" stroke="#FDFDFD" stroke-width="2" stroke-linecap="round" stroke-linejoin="round"/>
    <path d="M14 14.43L21 14.43" stroke="#FDFDFD" stroke-width="2" stroke-linecap="round" stroke-linejoin="round"/>
    <path d="M14 18.43H17" stroke="#FDFDFD" stroke-width="2" stroke-linecap="round" stroke-linejoin="round"/>
</svg>
