<svg width="37" height="37" viewBox="0 0 37 37" fill="none" xmlns="http://www.w3.org/2000/svg">
    <circle cx="18.2648" cy="18.6729" r="18" fill="#000072"/>
    <path d="M18 10.43H7C6.44772 10.43 6 10.8777 6 11.43V26.43C6 26.9823 6.44772 27.43 7 27.43H15M17.5 27.43H29C29.5523 27.43 30 26.9823 30 26.43V11.43C30 10.8777 29.5523 10.43 29 10.43H21" stroke="#FDFDFD" stroke-width="2"/>
    <path d="M21.8064 6.42999L22.7928 6.59439L23.3561 3.21483L21.0633 5.76081L21.8064 6.42999ZM19.8064 18.43L18.82 18.2656L18.626 19.43H19.8064V18.43ZM11 18.43L10.2569 17.7608L8.75374 19.43H11L11 18.43ZM16.5466 18.43L17.533 18.5944L17.7271 17.43H16.5466V18.43ZM14.5467 30.43L13.5603 30.2656L12.997 33.6452L15.2898 31.0992L14.5467 30.43ZM25.3531 18.43L26.0962 19.0992L27.5993 17.43H25.3531V18.43ZM20.82 6.26559L18.82 18.2656L20.7928 18.5944L22.7928 6.59439L20.82 6.26559ZM11.7431 19.0992L22.5495 7.09918L21.0633 5.76081L10.2569 17.7608L11.7431 19.0992ZM16.5466 17.43L11 17.43L11 19.43L16.5466 19.43V17.43ZM15.5331 30.5944L17.533 18.5944L15.5603 18.2656L13.5603 30.2656L15.5331 30.5944ZM24.61 17.7608L13.8036 29.7608L15.2898 31.0992L26.0962 19.0992L24.61 17.7608ZM19.8064 19.43H25.3531V17.43H19.8064V19.43Z" fill="#FDFDFD"/>
</svg>
