<svg width="24" height="24" viewBox="0 0 24 24" fill="none" xmlns="http://www.w3.org/2000/svg">
    <g clip-path="url(#clip0_24_420)">
        <path d="M4.25 -1.33244e-05H19.75C20.3083 -0.000552986 20.8612 0.111827 21.377 0.330695C21.8929 0.549562 22.3616 0.870621 22.7564 1.2755C23.1511 1.68037 23.4642 2.16112 23.6776 2.69022C23.891 3.21931 24.0005 3.78638 24 4.35896V19.641C24.0005 20.2136 23.891 20.7807 23.6776 21.3098C23.4642 21.8389 23.1511 22.3196 22.7564 22.7245C22.3616 23.1293 21.8929 23.4504 21.377 23.6693C20.8612 23.8881 20.3083 24.0005 19.75 24H4.25C3.69174 24.0005 3.13885 23.8881 2.62297 23.6693C2.1071 23.4504 1.63838 23.1293 1.24362 22.7245C0.848871 22.3196 0.535838 21.8389 0.322442 21.3098C0.109046 20.7807 -0.000524284 20.2136 1.88608e-06 19.641V4.35896C-0.000524284 3.78638 0.109046 3.21931 0.322442 2.69022C0.535838 2.16112 0.848871 1.68037 1.24362 1.2755C1.63838 0.870621 2.1071 0.549562 2.62297 0.330695C3.13885 0.111827 3.69174 -0.000552986 4.25 -1.33244e-05Z" fill="#000B1D"/>
        <path d="M9.70007 19.32C11.0808 19.32 12.2001 18.2007 12.2001 16.82V14.32H9.70007C8.31936 14.32 7.20007 15.4393 7.20007 16.82C7.20007 18.2007 8.31936 19.32 9.70007 19.32Z" fill="#0ACF83"/>
        <path d="M7.20007 11.82C7.20007 10.4393 8.31936 9.32 9.70007 9.32H12.2001V14.32H9.70007C8.31936 14.32 7.20007 13.2007 7.20007 11.82Z" fill="#A259FF"/>
        <path d="M7.20007 6.82C7.20007 5.43929 8.31936 4.32 9.70007 4.32H12.2001V9.32H9.70007C8.31936 9.32 7.20007 8.20071 7.20007 6.82Z" fill="#F24E1E"/>
        <path d="M12.2001 4.32H14.7001C16.0808 4.32 17.2001 5.43929 17.2001 6.82C17.2001 8.20071 16.0808 9.32 14.7001 9.32H12.2001V4.32Z" fill="#FF7262"/>
        <path d="M17.2001 11.82C17.2001 13.2007 16.0808 14.32 14.7001 14.32C13.3194 14.32 12.2001 13.2007 12.2001 11.82C12.2001 10.4393 13.3194 9.32 14.7001 9.32C16.0808 9.32 17.2001 10.4393 17.2001 11.82Z" fill="#1ABCFE"/>
    </g>
    <defs>
        <clipPath id="clip0_24_420">
            <rect width="24" height="24" fill="white"/>
        </clipPath>
    </defs>
</svg>
