<svg width="24" height="24" viewBox="0 0 24 24" fill="none" xmlns="http://www.w3.org/2000/svg">
    <g clip-path="url(#clip0_24_445)">
        <path d="M4.25 1.93444e-06H19.75C20.3083 -0.000537727 20.8612 0.111842 21.377 0.33071C21.8929 0.549578 22.3616 0.870637 22.7564 1.27551C23.1511 1.68039 23.4642 2.16113 23.6776 2.69023C23.891 3.21933 24.0005 3.7864 24 4.35898V19.641C24.0005 20.2136 23.891 20.7807 23.6776 21.3098C23.4642 21.8389 23.1511 22.3196 22.7564 22.7245C22.3616 23.1294 21.8929 23.4504 21.377 23.6693C20.8612 23.8882 20.3083 24.0005 19.75 24H4.25C3.69174 24.0005 3.13885 23.8882 2.62297 23.6693C2.1071 23.4504 1.63838 23.1294 1.24362 22.7245C0.848871 22.3196 0.535838 21.8389 0.322442 21.3098C0.109046 20.7807 -0.000524284 20.2136 1.88608e-06 19.641V4.35898C-0.000524284 3.7864 0.109046 3.21933 0.322442 2.69023C0.535838 2.16113 0.848871 1.68039 1.24362 1.27551C1.63838 0.870637 2.1071 0.549578 2.62297 0.33071C3.13885 0.111842 3.69174 -0.000537727 4.25 1.93444e-06Z" fill="#F16529"/>
        <path d="M8.27997 7.19522H12.0079V4.56001H5.40002L5.46306 5.26698L6.11079 12.5289H12.0079V9.89372H8.52083L8.27997 7.19522ZM8.8739 13.8466H6.22854L6.5977 17.9843L11.9958 19.4827L12.0079 19.4794V16.7377L11.9964 16.7407L9.06154 15.9483L8.8739 13.8466Z" fill="#EBEBEB"/>
        <path d="M11.9989 12.5289H15.2438L14.9379 15.9466L11.9988 16.7399V19.4815L17.4011 17.9843L17.4408 17.539L18.0601 10.6014L18.1244 9.89372H11.9989V12.5289ZM11.9989 7.18878V7.19522H18.3642L18.417 6.60294L18.5371 5.26698L18.6001 4.56001H11.9989V7.18887V7.18878Z" fill="white"/>
    </g>
    <defs>
        <clipPath id="clip0_24_445">
            <rect width="24" height="24" fill="white"/>
        </clipPath>
    </defs>
</svg>
