<svg width="24" height="24" viewBox="0 0 24 24" fill="none" xmlns="http://www.w3.org/2000/svg">
    <g clip-path="url(#clip0_24_465)">
        <path d="M4.25 1.93444e-06H19.75C20.3083 -0.000537727 20.8612 0.111842 21.377 0.33071C21.8929 0.549578 22.3616 0.870637 22.7564 1.27551C23.1511 1.68039 23.4642 2.16113 23.6776 2.69023C23.891 3.21933 24.0005 3.7864 24 4.35898V19.641C24.0005 20.2136 23.891 20.7807 23.6776 21.3098C23.4642 21.8389 23.1511 22.3196 22.7564 22.7245C22.3616 23.1294 21.8929 23.4504 21.377 23.6693C20.8612 23.8882 20.3083 24.0005 19.75 24H4.25C3.69174 24.0005 3.13885 23.8882 2.62297 23.6693C2.1071 23.4504 1.63838 23.1294 1.24362 22.7245C0.848871 22.3196 0.535838 21.8389 0.322442 21.3098C0.109046 20.7807 -0.000524284 20.2136 1.88608e-06 19.641V4.35898C-0.000524284 3.7864 0.109046 3.21933 0.322442 2.69023C0.535838 2.16113 0.848871 1.68039 1.24362 1.27551C1.63838 0.870637 2.1071 0.549578 2.62297 0.33071C3.13885 0.111842 3.69174 -0.000537727 4.25 1.93444e-06Z" fill="#F7DF1E"/>
        <path d="M16.1627 18.779C16.6461 19.5684 17.275 20.1486 18.3874 20.1486C19.3219 20.1486 19.9188 19.6815 19.9188 19.0362C19.9188 18.2629 19.3055 17.989 18.2769 17.539L17.7131 17.2971C16.0857 16.6038 15.0046 15.7352 15.0046 13.899C15.0046 12.2076 16.2933 10.92 18.3074 10.92C19.7413 10.92 20.7722 11.419 21.515 12.7257L19.7588 13.8533C19.3722 13.16 18.955 12.8869 18.3074 12.8869C17.6468 12.8869 17.2282 13.3059 17.2282 13.8533C17.2282 14.5299 17.6472 14.8038 18.6148 15.2229L19.1787 15.4644C21.0948 16.2861 22.1767 17.1238 22.1767 19.0072C22.1767 21.0377 20.5817 22.1501 18.4396 22.1501C16.3451 22.1501 14.992 21.152 14.3299 19.8438L16.1627 18.779ZM8.1958 18.9745C8.55008 19.603 8.87237 20.1345 9.64722 20.1345C10.3882 20.1345 10.8556 19.8446 10.8556 18.7173V11.0488H13.1108V18.7478C13.1108 21.083 11.7417 22.1459 9.74322 22.1459C7.93751 22.1459 6.89179 21.2114 6.35999 20.0859L8.1958 18.9745Z" fill="black"/>
    </g>
    <defs>
        <clipPath id="clip0_24_465">
            <rect width="24" height="24" fill="white"/>
        </clipPath>
    </defs>
</svg>
