<svg width="36" height="37" viewBox="0 0 36 37" fill="none" xmlns="http://www.w3.org/2000/svg">
    <circle cx="18" cy="18.43" r="18" fill="#000072"/>
    <path fill-rule="evenodd" clip-rule="evenodd" d="M18.2917 8.48906C18.1052 8.41031 17.8948 8.41031 17.7083 8.48906L6.45827 13.2391C6.18053 13.3563 6 13.6285 6 13.93C6 14.2315 6.18053 14.5037 6.45827 14.6209L10.25 16.2219V20.0255C9.76381 20.1516 9.30237 20.4029 8.9228 20.7824C8.34402 21.3612 8 22.1927 8 23.2111V27.7111C8 27.9604 8.12795 28.1981 8.33509 28.3359C8.39421 28.3751 8.45249 28.4087 8.55517 28.4601C8.67876 28.5219 8.85216 28.5983 9.07529 28.6727C9.52261 28.8218 10.1651 28.9612 11 28.9612C11.8349 28.9612 12.4773 28.8219 12.9246 28.6728C13.1478 28.5984 13.3212 28.522 13.4447 28.4603C13.5416 28.4119 13.5982 28.3786 13.6546 28.3428C13.8661 28.2052 14 27.9643 14 27.7113V23.2113C14 22.1929 13.656 21.3613 13.0772 20.7825C12.6976 20.4029 12.2362 20.1516 11.75 20.0255V16.8552L17.7083 19.3709C17.8948 19.4497 18.1052 19.4497 18.2917 19.3709L23.5 17.1719V21.1741C23.4774 21.1996 23.4512 21.228 23.4213 21.2587C23.2597 21.4249 22.9876 21.6638 22.572 21.9091C21.7458 22.3967 20.3174 22.93 18 22.93C17.388 22.93 16.8384 22.8928 16.346 22.8292C15.9352 22.7762 15.5592 23.0662 15.5062 23.477C15.4532 23.8878 15.7432 24.2639 16.154 24.3169C16.7132 24.3891 17.3271 24.43 18 24.43C20.5576 24.43 22.2543 23.8383 23.3343 23.2009C23.8718 22.8837 24.2481 22.5601 24.4968 22.3044C24.6402 22.1568 24.7814 21.9983 24.8894 21.8221L24.89 21.8211C24.9619 21.7033 25 21.568 25 21.43V16.5385L29.5417 14.6209C29.8195 14.5037 30 14.2315 30 13.93C30 13.6285 29.8195 13.3563 29.5417 13.2391L18.2917 8.48906ZM10.9999 21.43C10.9999 21.43 11 21.43 10.9999 21.43C10.623 21.43 10.2555 21.5711 9.98345 21.8431C9.71848 22.1081 9.5 22.5421 9.5 23.2111V27.2326C9.7989 27.3379 10.2973 27.4612 11 27.4612C11.7027 27.4612 12.2011 27.338 12.5 27.2327V23.2113C12.5 22.5422 12.2815 22.1081 12.0165 21.8432C11.7445 21.5711 11.3769 21.43 10.9999 21.43ZM18 17.8659L8.67816 13.93L18 9.9941L27.3218 13.93L18 17.8659Z" fill="#FDFDFD"/>
</svg>
