<svg width="24" height="24" viewBox="0 0 24 24" fill="none" xmlns="http://www.w3.org/2000/svg">
    <path d="M4.25 1.93444e-06H19.75C20.3083 -0.000537727 20.8612 0.111842 21.377 0.33071C21.8929 0.549578 22.3616 0.870637 22.7564 1.27551C23.1511 1.68039 23.4642 2.16113 23.6776 2.69023C23.891 3.21933 24.0005 3.7864 24 4.35898V19.641C24.0005 20.2136 23.891 20.7807 23.6776 21.3098C23.4642 21.8389 23.1511 22.3196 22.7564 22.7245C22.3616 23.1294 21.8929 23.4504 21.377 23.6693C20.8612 23.8882 20.3083 24.0005 19.75 24H4.25C3.69174 24.0005 3.13885 23.8882 2.62297 23.6693C2.1071 23.4504 1.63838 23.1294 1.24362 22.7245C0.848871 22.3196 0.535838 21.8389 0.322442 21.3098C0.109046 20.7807 -0.000524284 20.2136 1.88608e-06 19.641V4.35898C-0.000524284 3.7864 0.109046 3.21933 0.322442 2.69023C0.535838 2.16113 0.848871 1.68039 1.24362 1.27551C1.63838 0.870637 2.1071 0.549578 2.62297 0.33071C3.13885 0.111842 3.69174 -0.000537727 4.25 1.93444e-06Z" fill="#000B1D"/>
</svg>
